<svg width="219" height="58" viewBox="0 0 219 58" fill="none" xmlns="http://www.w3.org/2000/svg">
<path d="M25.1195 30.1589C28.8888 27.9605 29.88 25.5265 29.5606 24.1918C32.2437 31.7292 23.3051 36.9373 19.4188 38.7955C15.6123 40.4443 7.74374 42.3601 4.16616 39.3451C0.588585 36.3302 2.12084 31.1534 3.07912 28.8242C2.56803 36.4872 12.0763 35.3671 16.8943 33.8491C18.0655 33.535 21.3503 32.3573 25.1195 30.1589Z" fill="#587631"/>
<path fill-rule="evenodd" clip-rule="evenodd" d="M26.9446 33.8666C24.5668 36.3853 21.3763 38.1772 19.4491 39.1172L19.4465 39.1185L19.4437 39.1197C17.5492 39.9569 14.6475 40.8607 11.7716 41.1735C8.90486 41.4854 6.01713 41.215 4.19604 39.6494C2.37921 38.0874 1.86586 35.9677 1.9217 33.9591C1.97748 31.9529 2.60063 30.04 3.07758 28.8573L3.38156 28.9271C3.25743 30.8258 3.74183 32.1586 4.59104 33.0773C5.44379 33.9998 6.68292 34.5249 8.10452 34.7677C10.9513 35.2539 14.4645 34.5966 16.8358 33.8345L16.8391 33.8334L16.8424 33.8325C17.9857 33.5198 21.2205 32.3377 24.9362 30.1268C26.7836 29.0276 27.94 27.8755 28.5951 26.8419C29.2518 25.8059 29.3994 24.8993 29.2542 24.2804L29.557 24.1918C30.9107 28.0713 29.3244 31.3456 26.9446 33.8666ZM29.5584 25.3585C30.2597 28.6223 28.8263 31.4125 26.7152 33.6487C24.3776 36.1249 21.2294 37.8963 19.3137 38.831C17.4444 39.6566 14.5756 40.5499 11.7375 40.8586C8.88891 41.1684 6.11788 40.8844 4.40158 39.4089C2.68103 37.9297 2.18321 35.9179 2.23742 33.968C2.27996 32.4378 2.66274 30.9565 3.05285 29.8256C3.11252 31.3257 3.58923 32.4594 4.35944 33.2926C5.2762 34.2844 6.59043 34.8304 8.0515 35.08C10.9687 35.5782 14.5362 34.9058 16.9289 34.1372C18.1046 33.815 21.3628 32.6214 25.0974 30.3993C26.9768 29.281 28.174 28.0968 28.8616 27.0119C29.2334 26.4254 29.4579 25.8648 29.5584 25.3585Z" fill="#765C3C"/>
<path d="M25.2297 20.772C25.2833 21.269 25.4166 21.6146 25.5893 21.848C26.1121 22.5544 27.2505 22.2004 28.0381 22.5837C29.1195 23.1099 30.2144 24.2609 30.0353 26.4709C29.7805 29.6161 26.1064 32.7559 24.3013 33.9327C21.6731 35.6177 14.8878 38.7789 8.77149 37.9445C2.65515 37.11 1.17916 34.0665 1.20571 32.649C1.3119 30.5361 2.30474 26.0697 5.42662 25.1069C8.5485 24.144 10.8156 21.2823 11.5589 19.9718C12.2226 18.8218 14.6011 16.4254 18.8061 16.0403C21.8977 15.7571 23.7151 17.018 24.619 18.2158C25.159 18.9314 25.1332 19.8783 25.2297 20.772Z" fill="#FEFEF8"/>
<path fill-rule="evenodd" clip-rule="evenodd" d="M18.9739 16.0404C22.1255 15.7562 23.9981 17.0235 24.9356 18.2465C25.2278 18.6277 25.3628 19.0655 25.4382 19.51C25.4863 19.7936 25.5116 20.0935 25.5362 20.3852C25.5494 20.5421 25.5624 20.6965 25.5787 20.8447C25.6303 21.3155 25.7568 21.6267 25.9081 21.8278C26.125 22.1164 26.4748 22.2001 26.9235 22.2471C27.0002 22.2551 27.0813 22.2622 27.1644 22.2695C27.3121 22.2824 27.4661 22.2959 27.6121 22.3161C27.8453 22.3484 28.083 22.4004 28.3016 22.5051C28.8646 22.7748 29.435 23.2065 29.841 23.8577C30.2479 24.5103 30.483 25.3729 30.3909 26.4919C30.2591 28.0942 29.2471 29.6752 28.0623 30.9895C26.8739 32.3078 25.491 33.3803 24.5772 33.9668L24.5762 33.9674C23.2489 34.8051 20.8801 36.0051 18.0739 36.8931C15.2685 37.7808 12.0136 38.3606 8.91934 37.945C2.75121 37.1166 1.17703 34.0748 1.20574 32.5656L1.20579 32.5631L1.20592 32.5606C1.25984 31.5044 1.5381 29.8637 2.19992 28.3631C2.86056 26.8652 3.91727 25.4775 5.54487 24.9833C7.07695 24.5182 8.40518 23.5921 9.44522 22.6174C10.4853 21.6426 11.229 20.6268 11.5933 19.9946L11.5939 19.9936C12.283 18.8179 14.7095 16.4248 18.9739 16.0404ZM24.6817 18.4379C23.8091 17.2997 22.0424 16.0813 19.0027 16.3554C14.8468 16.7301 12.51 19.0605 11.8698 20.1522C11.4897 20.8118 10.7265 21.8518 9.6643 22.8473C8.60179 23.8431 7.23207 24.8019 5.63824 25.2858C4.13993 25.7407 3.13663 27.0287 2.49215 28.4899C1.84938 29.9473 1.57733 31.5476 1.52461 32.5741C1.50198 33.8606 2.8857 36.8155 8.96214 37.6315C11.9921 38.0385 15.1963 37.4716 17.9769 36.5917C20.7563 35.7122 23.0999 34.5241 24.4043 33.7009C25.298 33.1274 26.658 32.0727 27.8245 30.7787C28.9948 29.4805 29.9497 27.9641 30.073 26.4662C30.1602 25.4068 29.9369 24.613 29.5697 24.0241C29.2017 23.4338 28.6826 23.0389 28.1628 22.79C27.9871 22.7058 27.7866 22.6597 27.5679 22.6294C27.4283 22.6101 27.2909 22.5981 27.1501 22.5859C27.0651 22.5785 26.9788 22.571 26.89 22.5617C26.4408 22.5147 25.9589 22.4247 25.6523 22.0169C25.4577 21.758 25.3174 21.3879 25.2616 20.8789C25.2434 20.7133 25.2298 20.5509 25.2164 20.3909C25.1928 20.1092 25.1699 19.8348 25.1237 19.5624C25.0526 19.1436 24.9302 18.7621 24.6817 18.4379Z" fill="#765C3C"/>
<path fill-rule="evenodd" clip-rule="evenodd" d="M30.3875 26.1026C30.4299 26.8021 30.6105 29.7828 28.5842 32.7583C27.4821 34.3766 25.7744 35.845 23.8962 37.106C22.0164 38.3682 19.9567 39.4289 18.1407 40.2288C16.6743 40.8748 14.708 41.3292 12.9643 41.6156C11.2246 41.9013 9.6851 42.0232 9.0629 41.9964C7.71974 41.9826 6.39947 41.7524 5.19169 41.1399C3.98148 40.5261 2.8937 39.5334 2.01084 38.0101C1.12289 36.478 0.798564 34.5462 0.855481 32.7657C0.912297 30.9884 1.35013 29.3324 2.01706 28.3546L2.28358 28.5332C1.66363 29.4422 1.23282 31.0308 1.17704 32.7758C1.12136 34.5177 1.44047 36.3858 2.2898 37.8513C3.14422 39.3255 4.18783 40.2726 5.33823 40.856C6.49024 41.4402 7.75883 41.6644 9.0689 41.6775L9.07166 41.6776L9.07442 41.6777C9.66048 41.7035 11.1753 41.5862 12.9117 41.301C14.6465 41.0161 16.581 40.567 18.0101 39.9374C19.8135 39.143 21.8556 38.091 23.7158 36.842C25.5776 35.5919 27.248 34.1505 28.3175 32.5799C30.2769 29.7028 30.1082 26.8308 30.0661 26.1138C30.0622 26.0481 30.0594 26.0005 30.0594 25.9726H30.3812C30.3812 25.9973 30.3838 26.0411 30.3875 26.1026Z" fill="#765C3C"/>
<path d="M28.1052 18.8795C27.4259 19.2075 25.96 20.1346 25.2078 20.6277C25.1163 20.6878 25.061 20.7861 25.0692 20.8909C25.113 21.4503 25.3793 22.3102 26.1905 22.409C26.2898 22.4211 26.3848 22.3772 26.4553 22.3104C26.9469 21.8448 28.2793 20.8681 29.1874 20.2851C29.3609 20.1737 29.3953 19.9438 29.257 19.7949L28.4761 18.9549C28.3821 18.8537 28.2322 18.8182 28.1052 18.8795Z" fill="#765C3C"/>
<path fill-rule="evenodd" clip-rule="evenodd" d="M28.2623 18.8697C28.2172 18.8169 28.1557 18.8077 28.1107 18.8314C27.4932 19.1562 26.1453 20.0844 25.4469 20.5833C25.4034 20.6143 25.3831 20.6605 25.3861 20.7031C25.4053 20.9708 25.4735 21.3037 25.6196 21.5764C25.7639 21.8459 25.9757 22.0435 26.2862 22.0847C26.3143 22.0884 26.3558 22.0759 26.3984 22.0319C26.8642 21.5513 28.1075 20.5595 28.9507 19.9696C29.0349 19.9107 29.0487 19.7916 28.9851 19.717L28.2623 18.8697ZM27.9659 18.5417C28.156 18.4417 28.3721 18.5042 28.5011 18.6554L29.224 19.5026C29.4165 19.7283 29.3666 20.0727 29.1295 20.2386C28.2916 20.8248 27.068 21.8029 26.6236 22.2614C26.5356 22.3523 26.4012 22.4282 26.2455 22.4075C25.8051 22.3491 25.5182 22.0633 25.3414 21.7332C25.1663 21.4064 25.0909 21.0236 25.0696 20.727C25.0574 20.5584 25.1395 20.4061 25.2655 20.3161C25.9596 19.8204 27.3257 18.8784 27.9659 18.5417Z" fill="#765C3C"/>
<path d="M17.6621 18.8692C19.6151 19.1795 19.9134 21.4564 19.8151 22.6806C19.8078 22.7725 19.7897 22.8665 19.734 22.9392C18.9253 23.9934 15.204 18.4786 17.6621 18.8692Z" fill="black"/>
<path d="M13.7786 22.8184C14.4413 23.366 14.847 24.2874 15.0707 25.0702C15.2285 25.6222 14.7611 26.1329 14.2795 25.8316C13.4774 25.3297 13.043 24.2987 12.9068 23.705C12.7747 23.0602 12.7641 21.9802 13.7786 22.8184Z" fill="black"/>
<path d="M10.1725 25.495C12.2379 26.8681 12.4269 28.1206 12.2098 28.7437C12.1616 28.8822 12.052 28.9891 11.9163 29.0397C11.1001 29.344 9.81417 28.8109 8.86476 27.2513C8.15973 26.0931 8.91207 25.56 9.57432 25.3795C9.77904 25.3238 9.99507 25.377 10.1725 25.495Z" fill="black"/>
<path d="M5.53605 29.508C6.92324 29.4072 7.46523 30.0216 7.62331 30.5514C7.69859 30.8037 7.57019 31.0764 7.3241 31.1595C5.97457 31.6149 3.51068 29.6551 5.53605 29.508Z" fill="black"/>
<path d="M5.53605 34.102C5.53605 33.1907 6.24854 32.9234 6.91824 32.9019C7.36378 32.8876 7.62372 33.3038 7.35467 33.6652C6.75739 34.4676 5.53605 35.3198 5.53605 34.102Z" fill="black"/>
<path d="M10.7669 35.4722C9.58053 34.8952 10.0971 33.2834 10.7293 32.1382C10.958 31.724 11.4585 31.6517 11.6437 32.0878C12.212 33.4262 12.2413 36.1893 10.7669 35.4722Z" fill="black"/>
<path d="M16.9488 34.8274C15.9593 34.1274 15.8869 32.992 16.0829 32.0658C16.2092 31.4691 16.9069 31.3308 17.2403 31.8383C18.3357 33.5062 18.4679 35.9021 16.9488 34.8274Z" fill="black"/>
<path d="M21.7833 32.4095C20.3941 32.0685 19.9127 30.8165 19.806 29.8076C19.7541 29.3176 20.1836 28.9457 20.6151 29.17C22.2353 30.0119 23.7498 32.8922 21.7833 32.4095Z" fill="black"/>
<path d="M26.0631 28.299C25.8191 27.2756 25.1987 26.8078 24.5087 26.6428C23.7078 26.4513 23.4368 27.6796 24.0797 28.2016C25.2291 29.135 26.4523 29.9315 26.0631 28.299Z" fill="black"/>
<path fill-rule="evenodd" clip-rule="evenodd" d="M16.7355 19.0092C16.9186 18.8579 17.1851 18.8197 17.5125 18.8706C18.5605 19.0337 19.1624 19.718 19.4841 20.5005C19.8034 21.2771 19.8538 22.1627 19.8032 22.7792C19.7953 22.8764 19.7745 23.008 19.6889 23.1173C19.6173 23.2087 19.525 23.269 19.4174 23.2951C19.3126 23.3205 19.2037 23.3111 19.0985 23.2821C18.8913 23.2249 18.668 23.0829 18.4491 22.8996C18.0076 22.53 17.5322 21.9482 17.1633 21.3504C16.7978 20.7582 16.5183 20.1206 16.5008 19.6403C16.492 19.3971 16.55 19.1626 16.7355 19.0092ZM19.3422 22.9878C19.3771 22.9793 19.4088 22.9606 19.4385 22.9227C19.4646 22.8894 19.4799 22.8365 19.4867 22.7535C19.5346 22.1689 19.4848 21.3369 19.1901 20.6203C18.8979 19.9094 18.3721 19.3245 17.4635 19.1831C17.1753 19.1383 17.0197 19.1854 16.9384 19.2526C16.8597 19.3176 16.8112 19.4349 16.8182 19.6289C16.8325 20.0231 17.0739 20.6016 17.4339 21.1848C17.7904 21.7626 18.245 22.3155 18.6535 22.6575C18.8595 22.83 19.0411 22.938 19.1833 22.9773C19.2528 22.9965 19.3046 22.9969 19.3422 22.9878ZM13.021 22.4436C13.214 22.4524 13.4376 22.5684 13.6977 22.7788C14.3996 23.3468 14.8175 24.2888 15.0445 25.0666C15.1389 25.3901 15.0487 25.7115 14.8478 25.9104C14.6403 26.1157 14.3224 26.1801 14.0162 25.9925C13.5849 25.7282 13.2588 25.3291 13.0243 24.9279C12.7896 24.5262 12.6411 24.1128 12.5695 23.8073L12.5691 23.8055L12.5687 23.8036C12.5341 23.6382 12.5071 23.4435 12.5031 23.2563C12.4992 23.0731 12.5168 22.879 12.585 22.7265C12.62 22.6483 12.6716 22.5735 12.7477 22.5197C12.8258 22.4643 12.9189 22.4389 13.021 22.4436ZM12.8792 23.7373C12.9443 24.014 13.0815 24.3968 13.2988 24.7688C13.517 25.142 13.8103 25.4949 14.1826 25.7231C14.3587 25.831 14.5161 25.7927 14.6239 25.686C14.7382 25.5729 14.8031 25.373 14.7395 25.1549C14.5182 24.3967 14.1233 23.5308 13.4974 23.0243C13.2493 22.8235 13.0931 22.7635 13.0064 22.7595C12.9686 22.7578 12.9469 22.7667 12.9317 22.7775C12.9144 22.7897 12.8941 22.8128 12.8752 22.8552C12.8355 22.9438 12.8171 23.0819 12.8206 23.2496C12.8241 23.4126 12.8478 23.5868 12.8792 23.7373ZM9.34458 25.2615C9.60236 25.1927 9.86489 25.2604 10.0718 25.3952C12.1679 26.7599 12.429 28.0553 12.1756 28.7676C12.1104 28.951 11.9637 29.0891 11.7865 29.1538C11.3239 29.3227 10.7499 29.2527 10.1794 28.9537C9.60707 28.6537 9.02762 28.1186 8.53983 27.3339C8.16697 26.734 8.1564 26.2523 8.38154 25.8896C8.59611 25.5439 8.99784 25.354 9.34458 25.2615ZM9.89802 25.6599C9.74949 25.5632 9.5792 25.5264 9.42677 25.567C9.11008 25.6515 8.80324 25.8117 8.65168 26.0559C8.51069 26.283 8.47642 26.631 8.80986 27.1674C9.27319 27.9128 9.81341 28.4044 10.3273 28.6738C10.8432 28.9442 11.3221 28.9865 11.6772 28.8568C11.7719 28.8223 11.8448 28.7505 11.8763 28.662C12.0578 28.1517 11.9402 26.9896 9.89802 25.6599ZM23.7563 26.6142C23.9243 26.4903 24.1401 26.4427 24.3833 26.4997C24.7514 26.5859 25.1067 26.7527 25.4031 27.0363C25.7 27.3202 25.9301 27.7139 26.0585 28.2413C26.1089 28.4482 26.135 28.6238 26.1368 28.77C26.1385 28.9146 26.1166 29.0433 26.0584 29.1459C25.9966 29.2549 25.9006 29.3222 25.7852 29.348C25.6769 29.3722 25.5599 29.3582 25.4467 29.3273C25.2209 29.2657 24.9548 29.1206 24.6812 28.9417C24.4045 28.7608 24.1076 28.5368 23.8181 28.3066C23.4391 28.0052 23.3356 27.5078 23.4359 27.1167C23.4865 26.9191 23.5923 26.7352 23.7563 26.6142ZM23.7436 27.195C23.6686 27.4874 23.7513 27.8487 24.0163 28.0594C24.3026 28.2871 24.5907 28.5042 24.8555 28.6773C25.1233 28.8524 25.355 28.9743 25.5307 29.0223C25.6183 29.0462 25.6781 29.0477 25.7157 29.0393C25.7463 29.0325 25.7657 29.019 25.7819 28.9904C25.8018 28.9553 25.8206 28.8894 25.8192 28.7738C25.8178 28.6597 25.797 28.5094 25.7499 28.3159C25.6339 27.8392 25.431 27.5014 25.1832 27.2644C24.9349 27.027 24.6338 26.8833 24.3106 26.8076C24.1527 26.7706 24.0337 26.8032 23.9453 26.8684C23.8529 26.9366 23.7806 27.0507 23.7436 27.195ZM19.9588 29.3065C19.8481 29.3949 19.7732 29.5524 19.7937 29.7418C19.8979 30.7061 20.36 31.8466 21.654 32.1577C21.8877 32.2139 22.0521 32.2164 22.1624 32.1907C22.2666 32.1664 22.3212 32.1179 22.3521 32.0582C22.3864 31.992 22.4016 31.8919 22.3827 31.7528C22.3641 31.6153 22.3139 31.4527 22.2339 31.274C21.9106 30.5516 21.1489 29.6682 20.3741 29.2739C20.215 29.1929 20.0663 29.2207 19.9588 29.3065ZM19.7602 29.0597C19.9629 28.8979 20.2456 28.8533 20.5187 28.9923C21.367 29.424 22.1755 30.3666 22.524 31.1452C22.612 31.3418 22.6736 31.5342 22.6975 31.7106C22.7211 31.8854 22.7094 32.0583 22.6343 32.2033C22.5558 32.3548 22.4184 32.4558 22.2348 32.4987C22.0574 32.5401 21.8382 32.5274 21.5795 32.4651C20.0899 32.1071 19.5876 30.7909 19.4779 29.7756C19.4464 29.4843 19.5607 29.2189 19.7602 29.0597ZM6.93107 29.6102C7.29676 29.836 7.49403 30.1502 7.58311 30.4425C7.68186 30.7666 7.51503 31.1249 7.18143 31.2351C6.80006 31.3612 6.35572 31.3166 5.94905 31.1918C5.54024 31.0663 5.14941 30.8536 4.86611 30.6179C4.72458 30.5002 4.60466 30.3724 4.52364 30.2417C4.44373 30.1128 4.392 29.9648 4.41732 29.8153C4.44395 29.6581 4.54902 29.5366 4.7047 29.4544C4.85632 29.3743 5.0645 29.3258 5.32882 29.307C6.0476 29.2558 6.56633 29.385 6.93107 29.6102ZM6.76371 29.879C6.46995 29.6976 6.02235 29.5747 5.35144 29.6225C5.10851 29.6398 4.94997 29.6829 4.85349 29.7338C4.76107 29.7826 4.73665 29.8315 4.73049 29.8679C4.72301 29.9121 4.73516 29.9808 4.7939 30.0756C4.85152 30.1686 4.945 30.2715 5.06969 30.3752C5.31884 30.5824 5.67177 30.7757 6.04261 30.8895C6.41559 31.004 6.78678 31.0323 7.0814 30.9349C7.24085 30.8822 7.33129 30.7053 7.2792 30.5344C7.20991 30.3069 7.05651 30.0598 6.76371 29.879ZM16.4382 31.6116C16.2695 31.6442 16.1114 31.7755 16.0612 32.0075C15.8704 32.8907 15.9507 33.921 16.8641 34.5538C17.2365 34.8118 17.4418 34.8132 17.5409 34.7607C17.6442 34.706 17.7333 34.5416 17.743 34.2216C17.7617 33.6019 17.4687 32.637 16.9334 31.8388C16.8013 31.6419 16.6066 31.5791 16.4382 31.6116ZM16.3777 31.3011C16.6739 31.2439 16.9957 31.3621 17.1975 31.6632C17.7597 32.5014 18.0816 33.53 18.0604 34.2311C18.0501 34.5715 17.9556 34.8993 17.69 35.04C17.4202 35.1829 17.0713 35.0827 16.6828 34.8135C15.6136 34.0727 15.5489 32.8752 15.7508 31.9409C15.8271 31.5875 16.0817 31.3583 16.3777 31.3011ZM11.0306 31.8653C10.9145 31.8751 10.7746 31.9571 10.6812 32.1227C10.3687 32.677 10.0933 33.3307 10.0364 33.9053C10.0082 34.1911 10.035 34.4476 10.1293 34.6605C10.2221 34.8699 10.3846 35.0477 10.6489 35.1736C10.8165 35.2534 10.9501 35.2787 11.0549 35.2716C11.157 35.2648 11.2416 35.2268 11.3146 35.1613C11.4683 35.0236 11.5783 34.7561 11.6298 34.3903C11.7317 33.666 11.5865 32.6893 11.313 32.0585C11.2458 31.9036 11.1361 31.8563 11.0306 31.8653ZM11.0036 31.5501C11.2525 31.529 11.4862 31.6602 11.6046 31.9331C11.9005 32.6155 12.0546 33.6507 11.9443 34.4342C11.8896 34.8224 11.7655 35.1827 11.5271 35.3964C11.404 35.5067 11.253 35.5753 11.0763 35.5872C10.9022 35.5989 10.7135 35.5549 10.5119 35.4589C10.182 35.3018 9.96343 35.0696 9.83878 34.7882C9.71566 34.5102 9.68865 34.195 9.72037 33.8743C9.78352 33.2358 10.0835 32.537 10.4043 31.9678C10.54 31.727 10.7654 31.5703 11.0036 31.5501ZM7.07574 33.1121C7.02191 33.0228 6.90314 32.9471 6.72982 32.9526C6.40907 32.9627 6.09777 33.0305 5.87097 33.1861C5.65379 33.3351 5.49893 33.5743 5.49893 33.972C5.49893 34.254 5.57218 34.3528 5.62491 34.3857C5.6814 34.4209 5.78877 34.4284 5.96558 34.355C6.31088 34.2116 6.74572 33.8291 7.03543 33.4479C7.13419 33.318 7.12697 33.1971 7.07574 33.1121ZM7.34802 32.9493C7.4712 33.1536 7.45941 33.4142 7.28864 33.6389C6.97999 34.0449 6.50388 34.4741 6.08781 34.6469C5.88395 34.7316 5.64803 34.7733 5.45641 34.6538C5.26102 34.532 5.18133 34.2874 5.18133 33.972C5.18133 33.4755 5.38336 33.1365 5.6908 32.9256C5.98861 32.7213 6.36965 32.6475 6.7198 32.6364C6.99282 32.6279 7.22744 32.7493 7.34802 32.9493Z" fill="#765C3C"/>
<path d="M50.8668 28.614H54.7148V35.998C53.7268 36.7433 52.5828 37.3153 51.2828 37.714C49.9828 38.1127 48.6742 38.312 47.3568 38.312C45.4675 38.312 43.7688 37.9133 42.2608 37.116C40.7528 36.3013 39.5655 35.1833 38.6988 33.762C37.8495 32.3233 37.4248 30.7027 37.4248 28.9C37.4248 27.0973 37.8495 25.4853 38.6988 24.064C39.5655 22.6253 40.7615 21.5073 42.2868 20.71C43.8122 19.8953 45.5282 19.488 47.4348 19.488C49.0295 19.488 50.4768 19.7567 51.7768 20.294C53.0768 20.8313 54.1688 21.6113 55.0528 22.634L52.3488 25.13C51.0488 23.7607 49.4802 23.076 47.6428 23.076C46.4815 23.076 45.4502 23.3187 44.5488 23.804C43.6475 24.2893 42.9455 24.974 42.4428 25.858C41.9402 26.742 41.6888 27.756 41.6888 28.9C41.6888 30.0267 41.9402 31.032 42.4428 31.916C42.9455 32.8 43.6388 33.4933 44.5228 33.996C45.4242 34.4813 46.4468 34.724 47.5908 34.724C48.8042 34.724 49.8962 34.464 50.8668 33.944V28.614ZM66.7134 38.312C64.1134 38.312 62.0854 37.5927 60.6294 36.154C59.1908 34.7153 58.4714 32.6613 58.4714 29.992V19.8H62.6834V29.836C62.6834 33.0947 64.0354 34.724 66.7394 34.724C68.0568 34.724 69.0621 34.334 69.7554 33.554C70.4488 32.7567 70.7954 31.5173 70.7954 29.836V19.8H74.9554V29.992C74.9554 32.6613 74.2274 34.7153 72.7714 36.154C71.3328 37.5927 69.3134 38.312 66.7134 38.312ZM90.7228 34.1H82.2728L80.6608 38H76.3448L84.4568 19.8H88.6168L96.7548 38H92.3348L90.7228 34.1ZM89.3968 30.902L86.5108 23.934L83.6248 30.902H89.3968ZM115.335 19.8V38H111.877L102.803 26.95V38H98.643V19.8H102.127L111.175 30.85V19.8H115.335ZM131.627 34.1H123.177L121.565 38H117.249L125.361 19.8H129.521L137.659 38H133.239L131.627 34.1ZM130.301 30.902L127.415 23.934L124.529 30.902H130.301ZM128.585 14.574H132.953L128.247 18.318H125.075L128.585 14.574ZM152.911 28.536C153.951 28.8653 154.766 29.42 155.355 30.2C155.945 30.9627 156.239 31.9073 156.239 33.034C156.239 34.6287 155.615 35.8593 154.367 36.726C153.137 37.5753 151.334 38 148.959 38H139.547V19.8H148.439C150.658 19.8 152.357 20.2247 153.535 21.074C154.731 21.9233 155.329 23.076 155.329 24.532C155.329 25.416 155.113 26.2047 154.679 26.898C154.263 27.5913 153.674 28.1373 152.911 28.536ZM143.733 22.972V27.262H147.919C148.959 27.262 149.748 27.08 150.285 26.716C150.823 26.352 151.091 25.8147 151.091 25.104C151.091 24.3933 150.823 23.8647 150.285 23.518C149.748 23.154 148.959 22.972 147.919 22.972H143.733ZM148.647 34.828C149.757 34.828 150.589 34.646 151.143 34.282C151.715 33.918 152.001 33.3547 152.001 32.592C152.001 31.084 150.883 30.33 148.647 30.33H143.733V34.828H148.647ZM171.414 34.1H162.964L161.352 38H157.036L165.148 19.8H169.308L177.446 38H173.026L171.414 34.1ZM170.088 30.902L167.202 23.934L164.316 30.902H170.088ZM196.026 19.8V38H192.568L183.494 26.95V38H179.334V19.8H182.818L191.866 30.85V19.8H196.026ZM212.319 34.1H203.868L202.256 38H197.94L206.052 19.8H210.213L218.351 38H213.93L212.319 34.1ZM210.993 30.902L208.107 23.934L205.221 30.902H210.993Z" fill="#587631"/>
</svg>
