<svg width="18" height="16" viewBox="0 0 18 16" fill="none" xmlns="http://www.w3.org/2000/svg">
<path d="M16.6183 7.97323C16.1391 7.48524 16.0322 6.74384 16.3541 6.14023C16.584 5.71005 16.6002 5.19853 16.3972 4.75423C16.1948 4.3106 15.7969 3.98661 15.321 3.87907C14.6549 3.72783 14.1636 3.16187 14.1091 2.48029C14.0695 1.99432 13.806 1.55405 13.3953 1.29056C12.9859 1.0264 12.4764 0.969263 12.0173 1.13663C11.3747 1.36987 10.6555 1.15814 10.2415 0.615032C9.94572 0.227864 9.48595 0 8.99796 0C8.51064 0 8.05088 0.227864 7.75513 0.615032C7.34309 1.15881 6.62387 1.37055 5.98128 1.1373C5.52286 0.970607 5.01336 1.02774 4.60334 1.29123C4.19332 1.55472 3.92916 1.99499 3.89017 2.48096C3.83505 3.16254 3.34437 3.72918 2.67826 3.87974C2.20236 3.98729 1.80444 4.31127 1.60212 4.7549C1.3998 5.19853 1.41593 5.71072 1.64581 6.14023C1.96778 6.74317 1.8609 7.48524 1.38232 7.97323C1.04019 8.32074 0.880211 8.80806 0.949444 9.29067C1.01868 9.77329 1.30972 10.1961 1.73588 10.4334C2.33276 10.7661 2.64465 11.4483 2.50484 12.1171C2.40603 12.5944 2.53441 13.0904 2.85369 13.4588C3.17364 13.8278 3.64685 14.0261 4.13215 13.9952C4.81507 13.9528 5.44489 14.3581 5.68956 14.996C5.86365 15.4517 6.24074 15.7993 6.70924 15.9364C7.17639 16.0735 7.68186 15.9848 8.0744 15.6964C8.62491 15.2911 9.37572 15.2911 9.92555 15.6964C10.3181 15.9854 10.8236 16.0742 11.2907 15.9364C11.7592 15.7993 12.1363 15.4511 12.3111 14.996C12.5551 14.3581 13.1856 13.9521 13.8678 13.9952C14.3545 14.0261 14.827 13.8278 15.1463 13.4588C15.4655 13.0904 15.5946 12.5944 15.4951 12.1171C15.356 11.4483 15.6672 10.7661 16.2647 10.4334C16.6902 10.1954 16.9806 9.77329 17.0505 9.29067C17.1204 8.80806 16.9598 8.32074 16.6183 7.97323V7.97323ZM8.15977 11.6231L5.13502 8.68976L6.38324 7.44155L8.15977 9.12599L11.9528 5.23819L13.201 6.4864L8.15977 11.6231Z" fill="#587631"/>
</svg>
